<svg xmlns="http://www.w3.org/2000/svg" xmlns:xlink="http://www.w3.org/1999/xlink" version="1.1" id="Layer_1" x="0px" y="0px" viewBox="0 0 100 100" enable-background="new 0 0 100 100" xml:space="preserve" height="100px" width="100px">
<path fill="#000000" d="M38.156,64.088c3.562,0,6.961-1.333,9.573-3.751c0.81-0.75,0.858-2.016,0.108-2.826  c-0.751-0.811-2.016-0.859-2.827-0.108c-1.869,1.732-4.304,2.686-6.854,2.686c-5.563,0-10.088-4.526-10.088-10.088  s4.525-10.088,10.088-10.088c2.548,0,4.98,0.952,6.849,2.681c0.811,0.75,2.076,0.701,2.827-0.11c0.75-0.811,0.701-2.076-0.11-2.826  c-2.61-2.415-6.007-3.745-9.565-3.745c-7.769,0-14.088,6.32-14.088,14.088S30.387,64.088,38.156,64.088z"/>
<path fill="#000000" d="M65.156,64.088c3.562,0,6.961-1.333,9.573-3.751c0.81-0.75,0.858-2.016,0.108-2.826  c-0.751-0.811-2.016-0.859-2.827-0.108c-1.869,1.732-4.304,2.686-6.854,2.686c-5.563,0-10.088-4.526-10.088-10.088  s4.525-10.088,10.088-10.088c2.548,0,4.98,0.952,6.849,2.681c0.811,0.75,2.076,0.701,2.827-0.11c0.75-0.811,0.701-2.076-0.11-2.826  c-2.61-2.415-6.007-3.745-9.565-3.745c-7.769,0-14.088,6.32-14.088,14.088S57.387,64.088,65.156,64.088z"/>
<path fill="#000000" d="M50,92c22.766,0,42-19.233,42-42S72.766,8,50,8S8,27.233,8,50S27.234,92,50,92z M50,12  c20.598,0,38,17.402,38,38S70.598,88,50,88S12,70.598,12,50S29.402,12,50,12z"/>
</svg>