<svg xmlns="http://www.w3.org/2000/svg" xmlns:xlink="http://www.w3.org/1999/xlink" version="1.1" id="Layer_1" x="0px" y="0px" width="100px" height="100px" viewBox="5.0 -10.0 100.0 135.0" enable-background="new 0 0 100 100" xml:space="preserve">
<path stroke="#000000" stroke-width="4" stroke-miterlimit="10" d="M94,50c0,24.262-19.738,44-44,44S6,74.262,6,50S25.738,6,50,6  S94,25.738,94,50z M8,50c0,7.96,2.226,15.41,6.088,21.76c4.021-7.41,9.647-13.316,15.981-16.738l0.671-0.362l0.527,0.551  C36.21,60.377,42.862,63.223,50,63.223s13.79-2.846,18.732-8.013l0.527-0.551l0.671,0.362c6.334,3.422,11.96,9.328,15.981,16.738  C89.774,65.41,92,57.96,92,50C92,26.841,73.159,8,50,8S8,26.841,8,50z M30.159,31.774l-0.854-0.243l0.255-0.851  c2.692-8.982,11.116-15.256,20.485-15.256c11.533,0,20.917,9.025,21.363,20.547l0.028,0.727l-0.709,0.161  c-1.597,0.363-3.224,0.549-4.836,0.549c-7.972,0-15.295-4.409-19.067-11.355c-2.886,3.936-7.519,6.323-12.432,6.323  C32.984,32.376,31.56,32.174,30.159,31.774z"/>
<text x="0.0" y="117.5" font-size="5.0" font-weight="bold" font-family="Helvetica Neue, Helvetica, Arial-Unicode, Arial, Sans-serif" fill="#000000">Created by Simon David</text><text x="0.0" y="122.5" font-size="5.0" font-weight="bold" font-family="Helvetica Neue, Helvetica, Arial-Unicode, Arial, Sans-serif" fill="#000000">from the Noun Project</text></svg>